<svg width="1em" height="1em" viewBox="0 0 164 164" fill="none" xmlns="http://www.w3.org/2000/svg">
<path d="M82 164C127.287 164 164 127.287 164 82C164 36.7127 127.287 0 82 0C36.7127 0 0 36.7127 0 82C0 127.287 36.7127 164 82 164Z" fill="#C74800"/>
<path d="M82 164C127.287 164 164 127.287 164 82C164 36.7127 127.287 0 82 0C36.7127 0 0 36.7127 0 82C0 127.287 36.7127 164 82 164Z" fill="url(#paint0_linear_120_836)"/>
<path opacity="0.3" d="M161.5 82C161.5 125.907 125.907 161.5 82 161.5C38.0934 161.5 2.5 125.907 2.5 82C2.5 38.0934 38.0934 2.5 82 2.5C125.907 2.5 161.5 38.0934 161.5 82Z" fill="url(#paint1_linear_120_836)" stroke="#FFBF51"/>
<path opacity="0.5" d="M82.3387 162.091L82.3181 155.287H82.6055L82.6568 162.091H82.3387ZM81.3945 162.091H81.0866L81.1584 155.287H81.4458L81.3945 162.091ZM83.601 162.071L83.4778 155.266L83.7652 155.256L83.9191 162.06L83.601 162.071ZM80.1322 162.071L79.8037 162.06L79.9987 155.256L80.2758 155.266L80.1322 162.071ZM84.8531 162.04L84.6273 155.236L84.9044 155.225L85.1815 162.019L84.8531 162.04ZM78.8596 162.03L78.5414 162.019L78.839 155.225L79.1264 155.236L78.8596 162.03ZM86.1359 161.978L85.7665 155.184L86.0538 155.174L86.4233 161.968L86.1359 161.978ZM77.5972 161.968L77.2791 161.947L77.6793 155.153L77.9667 155.174L77.5972 161.968ZM87.388 161.906L86.9364 155.123L87.2238 155.102L87.6959 161.886L87.388 161.906ZM76.3452 161.896L76.027 161.876L76.5299 155.092L76.8173 155.112L76.3452 161.896ZM88.64 161.814L88.0961 155.03L88.3835 155.01L88.9582 161.793L88.64 161.814ZM75.0828 161.793L74.7544 161.763L75.3702 154.989L75.6473 155.01L75.0828 161.793ZM89.9024 161.701L89.2558 154.928L89.5329 154.897L90.2308 161.66L89.9024 161.701ZM73.8205 161.681L73.5024 161.65L74.2208 154.887L74.5081 154.917L73.8205 161.681ZM91.1955 161.568L90.395 154.815L90.6823 154.784L91.4828 161.537L91.1955 161.568ZM72.5685 161.537L72.24 161.496L73.0816 154.743L73.3587 154.774L72.5685 161.537ZM92.4168 161.414L91.5444 154.671L91.8318 154.63L92.7247 161.373L92.4168 161.414ZM71.3164 161.383L71.0085 161.342L71.9322 154.599L72.2195 154.64L71.3164 161.383ZM93.6586 161.25L92.6939 154.517L92.9607 154.476L93.987 161.198L93.6586 161.25ZM70.0643 161.209L69.7359 161.157L70.7827 154.435L71.0598 154.476L70.0643 161.209ZM94.9106 161.055L93.8433 154.332L94.1204 154.291L95.239 161.003L94.9106 161.055ZM68.8123 161.003L68.4941 160.952L69.6435 154.25L69.9206 154.302L68.8123 161.003ZM96.1524 160.839L94.9825 154.137L95.2596 154.086L96.4808 160.777L96.1524 160.839ZM67.5705 160.788L67.2421 160.726L68.5146 154.045L68.7815 154.096L67.5705 160.788ZM97.4045 160.603L96.1114 153.922L96.3987 153.871L97.7226 160.541L97.4045 160.603ZM66.3287 160.552L66.0105 160.49L67.3755 153.83L67.6526 153.881L66.3287 160.552ZM98.636 160.357L97.2403 153.696L97.5071 153.635L98.9542 160.285L98.636 160.357ZM65.0869 160.295L64.7687 160.223L66.2363 153.583L66.5031 153.645L65.0869 160.295ZM99.8778 160.08L98.3692 153.45L98.6463 153.388L100.186 160.018L99.8778 160.08ZM63.845 160.018L63.5372 159.946L65.1074 153.327L65.3947 153.388L63.845 160.018ZM101.099 159.792L99.5084 153.173L99.7752 153.111L101.417 159.71L101.099 159.792ZM62.6238 159.731L62.3056 159.649L63.999 153.06L64.2658 153.132L62.6238 159.731ZM102.331 159.484L100.617 152.896L100.894 152.824L102.639 159.402L102.331 159.484ZM61.4025 159.413L61.0946 159.33L62.8598 152.762L63.1369 152.834L61.4025 159.413ZM103.552 159.156L101.735 152.598L102.013 152.516L103.86 159.064L103.552 159.156ZM60.1812 159.084L59.8631 158.992L61.7617 152.454L62.0285 152.526L60.1812 159.084ZM104.773 158.807L102.854 152.28L103.121 152.198L105.081 158.715L104.773 158.807ZM58.9599 158.725L58.6521 158.633L60.6431 152.126L60.9201 152.208L58.9599 158.725ZM105.984 158.427L103.942 151.941L104.219 151.859L106.292 158.345L105.984 158.427ZM57.7489 158.355L57.441 158.253L59.5347 151.777L59.8015 151.859L57.7489 158.355ZM107.195 158.037L105.04 151.582L105.327 151.49L107.493 157.935L107.195 158.037ZM56.5482 157.955L56.2403 157.853L58.4468 151.418L58.7136 151.51L56.5482 157.955ZM108.386 157.637L106.148 151.213L106.426 151.12L108.683 157.534L108.386 157.637ZM55.3474 157.545L55.0498 157.442L57.3384 151.038L57.6052 151.13L55.3474 157.545ZM109.566 157.216L107.236 150.823L107.503 150.72L109.874 157.093L109.566 157.216ZM54.1467 157.114L53.8491 157.001L56.23 150.628L56.5071 150.73L54.1467 157.114ZM110.767 156.765L108.304 150.422L108.591 150.309L111.054 156.652L110.767 156.765ZM52.9562 156.662L52.6688 156.549L55.1524 150.217L55.4295 150.33L52.9562 156.662ZM111.947 156.303L109.391 150.001L109.669 149.889L112.234 156.19L111.947 156.303ZM51.776 156.19L51.4886 156.077L54.0748 149.786L54.3519 149.899L51.776 156.19ZM113.096 155.821L110.459 149.55L110.715 149.437L113.394 155.687L113.096 155.821ZM50.606 155.697L50.3289 155.574L53.0075 149.324L53.2846 149.447L50.606 155.697ZM114.266 155.328L111.516 149.109L111.783 148.996L114.554 155.205L114.266 155.328ZM49.4463 155.194L49.1692 155.071L51.9504 148.862L52.2275 148.985L49.4463 155.194ZM115.406 154.805L112.563 148.626L112.819 148.503L115.693 154.671L115.406 154.805ZM48.2866 154.671L48.0095 154.538L50.8934 148.38L51.1602 148.503L48.2866 154.671ZM116.555 154.271L113.61 148.134L113.866 148.011L116.842 154.127L116.555 154.271ZM47.1577 154.127L46.8703 153.983L49.8568 147.867L50.1134 147.99L47.1577 154.127ZM117.684 153.717L114.656 147.631L114.913 147.497L117.961 153.573L117.684 153.717ZM46.0185 153.573L45.7312 153.429L48.81 147.364L49.0666 147.497L46.0185 153.573ZM118.813 153.142L115.672 147.107L115.939 146.974L119.09 152.998L118.813 153.142ZM44.8896 152.988L44.6125 152.844L47.7735 146.82L48.0403 146.953L44.8896 152.988ZM119.911 152.557L116.688 146.563L116.935 146.43L120.188 152.403L119.911 152.557ZM43.771 152.393L43.4939 152.239L46.7677 146.276L47.014 146.41L43.771 152.393ZM121.03 151.951L117.694 146.02L117.951 145.876L121.296 151.798L121.03 151.951ZM42.6626 151.777L42.3957 151.623L45.7517 145.701L46.0082 145.845L42.6626 151.777ZM122.117 151.336L118.71 145.445L118.946 145.301L122.394 151.171L122.117 151.336ZM41.5644 151.151L41.2976 150.987L44.7459 145.127L45.0025 145.27L41.5644 151.151ZM123.205 150.689L119.695 144.86L119.952 144.706L123.472 150.525L123.205 150.689ZM40.4766 150.494L40.1995 150.33L43.7607 144.531L44.007 144.685L40.4766 150.494ZM124.273 150.032L120.681 144.254L120.927 144.1L124.539 149.858L124.273 150.032ZM39.399 149.827L39.1424 149.663L42.7755 143.916L43.0218 144.07L39.399 149.827ZM125.35 149.355L121.656 143.639L121.902 143.485L125.617 149.191L125.35 149.355ZM38.3317 149.15L38.0648 148.975L41.7902 143.279L42.0365 143.444L38.3317 149.15ZM126.407 148.657L122.62 143.002L122.867 142.838L126.664 148.483L126.407 148.657ZM37.2746 148.452L37.0078 148.277L40.8358 142.653L41.0718 142.818L37.2746 148.452ZM127.505 147.908L123.575 142.356L123.821 142.191L127.711 147.774L127.505 147.908ZM36.2278 147.723L35.9815 147.549L39.8916 141.976L40.1379 142.15L36.2278 147.723ZM128.48 147.22L124.519 141.689L124.755 141.514L128.727 147.036L128.48 147.22ZM35.2015 147.005L34.9449 146.82L38.9474 141.319L39.1835 141.483L35.2015 147.005ZM129.558 146.451L125.463 141.022L125.699 140.847L129.763 146.307L129.558 146.451ZM34.1752 146.245L33.9289 146.061L38.0032 140.611L38.2496 140.796L34.1752 146.245ZM130.512 145.722L126.376 140.313L126.613 140.139L130.759 145.537L130.512 145.722ZM33.1695 145.486L32.9129 145.291L37.0899 139.923L37.3156 140.098L33.1695 145.486ZM131.508 144.952L127.29 139.616L127.516 139.431L131.744 144.757L131.508 144.952ZM32.174 144.706L31.9277 144.511L36.1867 139.205L36.4125 139.379L32.174 144.706ZM132.493 144.172L128.203 138.887L128.419 138.702L132.729 143.967L132.493 144.172ZM31.1887 143.905L30.9527 143.71L35.2836 138.466L35.5196 138.661L31.1887 143.905ZM133.468 143.361L129.086 138.158L129.312 137.973L133.704 143.166L133.468 143.361ZM30.224 143.105L29.9777 142.9L34.401 137.727L34.6165 137.912L30.224 143.105ZM134.433 142.54L129.968 137.409L130.194 137.214L134.669 142.335L134.433 142.54ZM29.2593 142.284L29.0233 142.068L33.5287 136.968L33.7442 137.152L29.2593 142.284ZM135.398 141.689L130.831 136.639L131.046 136.444L135.603 141.494L135.398 141.689ZM28.3151 141.442L28.0791 141.227L32.6563 136.198L32.8718 136.393L28.3151 141.442ZM136.311 140.868L131.703 135.859L131.908 135.664L136.537 140.642L136.311 140.868ZM27.3915 140.58L27.1554 140.365L31.8148 135.408L32.02 135.603L27.3915 140.58ZM137.235 139.995L132.534 135.079L132.75 134.874L137.46 139.78L137.235 139.995ZM26.4678 139.718L26.242 139.492L30.9732 134.607L31.1785 134.802L26.4678 139.718ZM138.138 139.113L133.365 134.269L133.571 134.063L138.353 138.897L138.138 139.113ZM25.5647 138.825L25.3389 138.61L30.1522 133.796L30.3574 134.002L25.5647 138.825ZM139.031 138.22L134.186 133.448L134.392 133.242L139.256 138.004L139.031 138.22ZM24.6718 137.932L24.4563 137.707L29.3414 132.975L29.5467 133.191L24.6718 137.932ZM139.913 137.317L134.997 132.616L135.202 132.401L140.139 137.081L139.913 137.317ZM23.7995 137.029L23.584 136.793L28.5409 132.134L28.7359 132.339L23.7995 137.029ZM140.775 136.393L135.777 131.775L135.972 131.559L140.98 136.167L140.775 136.393ZM22.9477 136.106L22.7322 135.87L27.7609 131.292L27.9559 131.498L22.9477 136.106ZM141.637 135.459L136.557 130.933L136.762 130.707L141.843 135.233L141.637 135.459ZM22.0959 135.161L21.8906 134.925L26.9912 130.42L27.1862 130.646L22.0959 135.161ZM142.469 134.515L137.337 130.051L137.532 129.825L142.674 134.279L142.469 134.515ZM21.2646 134.207L21.0593 133.961L26.242 129.548L26.4268 129.763L21.2646 134.207ZM143.29 133.55L138.086 129.168L138.271 128.952L143.495 133.304L143.29 133.55ZM20.4435 133.242L20.2486 133.006L25.4826 128.665L25.6673 128.891L20.4435 133.242ZM144.1 132.585L138.825 128.285L139.01 128.06L144.306 132.329L144.1 132.585ZM19.643 132.267L19.448 132.021L24.7539 127.762L24.9387 127.988L19.643 132.267ZM144.891 131.59L139.544 127.382L139.728 127.146L145.075 131.354L144.891 131.59ZM18.8631 131.282L18.6681 131.026L24.0458 126.869L24.2203 127.095L18.8631 131.282ZM145.66 130.594L140.252 126.459L140.426 126.233L145.855 130.338L145.66 130.594ZM18.0934 130.276L17.9086 130.03L23.3479 125.945L23.5224 126.181L18.0934 130.276ZM146.42 129.589L140.95 125.535L141.124 125.309L146.615 129.332L146.42 129.589ZM17.3339 129.26L17.1492 129.014L22.6501 125.012L22.8245 125.248L17.3339 129.26ZM147.169 128.562L141.637 124.601L141.801 124.365L147.354 128.296L147.169 128.562ZM16.595 128.244L16.4103 127.988L21.9727 124.067L22.1369 124.303L16.595 128.244ZM147.898 127.526L142.304 123.647L142.469 123.411L148.082 127.259L147.898 127.526ZM15.8766 127.208L15.6919 126.941L21.3261 123.123L21.4904 123.359L15.8766 127.208ZM148.606 126.479L142.951 122.692L143.105 122.456L148.78 126.212L148.606 126.479ZM15.1787 126.161L15.0042 125.894L20.6899 122.158L20.8438 122.394L15.1787 126.161ZM149.314 125.412L143.597 121.727L143.762 121.481L149.488 125.155L149.314 125.412ZM14.4808 125.104L14.3166 124.847L20.0536 121.183L20.2178 121.44L14.4808 125.104ZM149.991 124.344L144.213 120.752L144.367 120.496L150.155 124.078L149.991 124.344ZM13.8138 124.037L13.6496 123.77L19.448 120.209L19.602 120.465L13.8138 124.037ZM150.648 123.277L144.819 119.767L144.962 119.521L150.802 123L150.648 123.277ZM13.1569 122.959L12.9927 122.682L18.8528 119.223L18.9965 119.47L13.1569 122.959ZM151.295 122.179L145.404 118.772L145.558 118.505L151.449 121.912L151.295 122.179ZM12.5206 121.871L12.3667 121.604L18.2678 118.218L18.4115 118.474L12.5206 121.871ZM151.921 121.081L145.989 117.756L146.132 117.509L152.085 120.804L151.921 121.081ZM11.9049 120.773L11.7509 120.496L17.7136 117.222L17.847 117.468L11.9049 120.773ZM152.536 119.962L146.543 116.75L146.687 116.483L152.69 119.685L152.536 119.962ZM11.2994 119.665L11.1557 119.398L17.1594 116.206L17.3031 116.463L11.2994 119.665ZM153.121 118.854L147.077 115.724L147.21 115.467L153.265 118.566L153.121 118.854ZM10.7144 118.546L10.5707 118.269L16.636 115.19L16.7695 115.447L10.7144 118.546ZM153.696 117.715L147.61 114.687L147.733 114.431L153.84 117.438L153.696 117.715ZM10.1499 117.427L10.0062 117.14L16.1126 114.143L16.2358 114.4L10.1499 117.427ZM154.261 116.575L148.123 113.64L148.257 113.373L154.404 116.298L154.261 116.575ZM9.59573 116.288L9.46232 116.001L15.62 113.107L15.7432 113.363L9.59573 116.288ZM154.794 115.426L148.606 112.593L148.729 112.327L154.917 115.149L154.794 115.426ZM9.07233 115.149L8.93891 114.862L15.1377 112.06L15.2608 112.327L9.07233 115.149ZM155.318 114.277L149.088 111.547L149.211 111.27L155.441 114L155.318 114.277ZM8.55919 114L8.43603 113.712L14.6861 111.013L14.799 111.27L8.55919 114ZM155.821 113.107L149.55 110.469L149.663 110.192L155.933 112.819L155.821 113.107ZM8.05631 112.84L7.93316 112.542L14.2243 109.946L14.3372 110.213L8.05631 112.84ZM156.303 111.937L149.991 109.402L150.104 109.125L156.426 111.649L156.303 111.937ZM7.58422 111.66L7.47133 111.372L13.7932 108.868L13.9061 109.145L7.58422 111.66ZM156.765 110.756L150.412 108.324L150.515 108.047L156.867 110.469L156.765 110.756ZM7.12239 110.49L7.0095 110.202L13.3725 107.79L13.4751 108.068L7.12239 110.49ZM157.216 109.566L150.823 107.226L150.925 106.959L157.329 109.268L157.216 109.566ZM6.68109 109.299L6.57846 109.012L12.9825 106.703L13.0851 106.98L6.68109 109.299ZM157.647 108.375L151.223 106.138L151.315 105.861L157.75 108.068L157.647 108.375ZM6.26031 108.109L6.15769 107.811L12.6027 105.625L12.6951 105.892L6.26031 108.109ZM158.048 107.185L151.592 105.03L151.674 104.763L158.14 106.867L158.048 107.185ZM5.86006 106.908L5.7677 106.621L12.2333 104.506L12.3256 104.794L5.86006 106.908ZM158.438 105.964L151.941 103.932L152.023 103.655L158.52 105.666L158.438 105.964ZM5.48034 105.707L5.38797 105.389L11.9049 103.429L11.987 103.696L5.48034 105.707ZM158.807 104.763L152.29 102.823L152.372 102.546L158.899 104.465L158.807 104.763ZM5.11088 104.496L5.01851 104.178L11.5662 102.31L11.638 102.577L5.11088 104.496ZM159.156 103.552L152.608 101.705L152.68 101.438L159.248 103.224L159.156 103.552ZM4.76194 103.275L4.67984 102.967L11.248 101.202L11.3199 101.479L4.76194 103.275ZM159.484 102.32L152.906 100.596L152.978 100.319L159.566 102.013L159.484 102.32ZM4.44379 102.054L4.36169 101.746L10.9607 100.083L11.0325 100.36L4.44379 102.054ZM159.792 101.109L153.193 99.4571L153.255 99.1902L159.864 100.781L159.792 101.109ZM4.13591 100.832L4.06407 100.514L10.6939 98.9747L10.7554 99.2415L4.13591 100.832ZM160.09 99.8676L153.46 98.3487L153.522 98.0716L160.162 99.5597L160.09 99.8676ZM3.84855 99.6007L3.77671 99.2826L10.427 97.8355L10.4886 98.1024L3.84855 99.6007ZM160.357 98.636L153.706 97.2095L153.758 96.9427L160.418 98.3076L160.357 98.636ZM3.58172 98.3692L3.52014 98.0511L10.191 96.7066L10.2423 96.9837L3.58172 98.3692ZM160.603 97.3942L153.932 96.0703L153.983 95.8035L160.665 97.0658L160.603 97.3942ZM3.33541 97.1171L3.27383 96.8093L9.9652 95.5675L10.0165 95.8548L3.33541 97.1171ZM160.839 96.1524L154.148 94.9312L154.199 94.6541L160.901 95.824L160.839 96.1524ZM3.10963 95.8753L3.05831 95.5469L9.7702 94.4283L9.82152 94.7054L3.10963 95.8753ZM161.055 94.9004L154.343 93.8022L154.384 93.5149L161.106 94.5822L161.055 94.9004ZM2.89411 94.6335L2.84279 94.3051L9.56494 93.2891L9.606 93.5662L2.89411 94.6335ZM161.25 93.6586L154.517 92.6631L154.558 92.3962L161.301 93.3404L161.25 93.6586ZM2.70938 93.3815L2.66832 93.0531L9.411 92.1294L9.45205 92.4065L2.70938 93.3815ZM161.424 92.3552L154.671 91.5239L154.712 91.2365L161.465 92.0884L161.424 92.3552ZM2.54517 92.1294L2.50412 91.8215L9.25706 91.0005L9.28785 91.2879L2.54517 92.1294ZM161.568 91.1442L154.805 90.3745L154.835 90.0871L161.598 90.8363L161.568 91.1442ZM2.39123 90.8671L2.36044 90.5797L9.12364 89.8305L9.15443 90.1179L2.39123 90.8671ZM161.701 89.8818L154.928 89.2148L154.958 88.9274L161.732 89.574L161.701 89.8818ZM2.26807 89.615L2.23728 89.2866L9.01075 88.6914L9.03128 88.9685L2.26807 89.615ZM161.814 88.6298L155.03 88.0551L155.051 87.778L161.835 88.3014L161.814 88.6298ZM2.15518 88.3527L2.13466 88.0345L8.91839 87.5317L8.93891 87.819L2.15518 88.3527ZM161.906 87.3675L155.123 86.9159L155.143 86.6285L161.937 87.0493L161.906 87.3675ZM2.06282 87.0904L2.04229 86.7619L8.83628 86.3925L8.85681 86.6696L2.06282 87.0904ZM161.988 86.1051L155.194 85.7562L155.205 85.4688L161.999 85.7972L161.988 86.1051ZM2.00124 85.8383L1.99098 85.5201L8.78497 85.2225L8.79523 85.5099L2.00124 85.8383ZM162.04 84.8428L155.246 84.5965L155.256 84.3194L162.06 84.5144L162.04 84.8428ZM1.94993 84.576L1.93966 84.2476L8.74392 84.0731L8.75418 84.3502L1.94993 84.576ZM162.071 83.5805L155.266 83.4265L155.277 83.1494L162.081 83.2521L162.071 83.5805ZM1.91914 83.3034V82.9852L8.72339 82.9134V83.2007L1.91914 83.3034ZM162.091 82.3079L155.287 82.2874V81.8974H162.091V82.3079ZM1.90887 82.0513V81.7332L8.71313 81.764V82L1.90887 82.0513ZM155.277 81.025V80.7479L162.081 80.6248V80.9532L155.277 81.025ZM8.71313 80.8813L1.90887 80.7787L1.91914 80.4708L8.72339 80.594L8.71313 80.8813ZM155.256 79.8653L155.246 79.5882L162.05 79.3624L162.06 79.6909L155.256 79.8653ZM8.74392 79.7216L1.93966 79.5267L1.94993 79.1982L8.74392 79.4445V79.7216ZM155.215 78.7159L155.205 78.4388L161.999 78.1104L162.009 78.4388L155.215 78.7159ZM8.78497 78.5825L1.99098 78.2541L2.0115 77.9359L8.8055 78.2849L8.78497 78.5825ZM155.153 77.5665L155.133 77.2791L161.927 76.8583L161.947 77.1765L155.153 77.5665ZM8.84655 77.4228L2.05255 77.002L2.07308 76.6839L8.85681 77.1354L8.84655 77.4228ZM155.071 76.4068L155.051 76.1297L161.835 75.5857L161.855 75.9141L155.071 76.4068ZM8.92865 76.2631L2.14492 75.7397L2.16545 75.442L8.94917 75.9655L8.92865 76.2631ZM154.979 75.2676L154.948 74.9802L161.722 74.3337L161.752 74.6518L154.979 75.2676ZM9.03128 75.1034L2.25781 74.4773L2.2886 74.1489L9.06207 74.816L9.03128 75.1034ZM154.866 74.0976L154.835 73.8205L161.598 73.0713L161.629 73.3997L154.866 74.0976ZM9.14417 73.9642L2.38096 73.215L2.41175 72.8969L9.17496 73.6666L9.14417 73.9642ZM154.733 72.9584L154.702 72.6711L161.455 71.8193L161.496 72.1272L154.733 72.9584ZM9.27759 72.8148L2.52464 71.963L2.5657 71.6345L9.30837 72.5274L9.27759 72.8148ZM154.579 71.809L154.538 71.5319L161.27 70.5569L161.311 70.8854L154.579 71.809ZM9.43153 71.6551L2.69911 70.7109L2.75043 70.3825L9.48284 71.3882L9.43153 71.6551ZM154.415 70.6698L154.373 70.3825L161.096 69.3151L161.147 69.6333L154.415 70.6698ZM9.606 70.5159L2.88384 69.4691L2.93516 69.1407L9.64705 70.2388L9.606 70.5159ZM154.23 69.5204L154.178 69.233L160.88 68.0631L160.931 68.371L154.23 69.5204ZM9.79073 69.3767L3.0891 68.2067L3.14041 67.8989L9.84204 69.0894L9.79073 69.3767ZM154.025 68.3812L153.973 68.0939L160.654 66.8213L160.716 67.1292L154.025 68.3812ZM9.99598 68.2375L3.31488 66.965L3.37646 66.6571L10.0576 67.9502L9.99598 68.2375ZM153.799 67.2421L153.747 66.965L160.408 65.5795L160.47 65.8976L153.799 67.2421ZM10.2218 67.0984L3.56119 65.7334L3.63303 65.405L10.2833 66.8315L10.2218 67.0984ZM153.563 66.1234L153.501 65.836L160.141 64.3479L160.213 64.6558L153.563 66.1234ZM10.4681 65.9797L3.82802 64.4916L3.89986 64.1837L10.5297 65.7026L10.4681 65.9797ZM153.306 64.9945L153.234 64.7071L159.844 63.1164L159.915 63.4243L153.306 64.9945ZM10.7246 64.8508L4.11538 63.2601L4.18722 62.9522L10.7965 64.5737L10.7246 64.8508ZM153.029 63.8656L152.957 63.5885L159.546 61.8951L159.628 62.203L153.029 63.8656ZM11.0017 63.7219L4.413 62.0285L4.49511 61.7104L11.0736 63.4551L11.0017 63.7219ZM152.731 62.7469L152.66 62.4801L159.218 60.6636L159.3 60.9817L152.731 62.7469ZM11.2994 62.6032L4.73115 60.8175L4.82352 60.4994L11.3712 62.3467L11.2994 62.6032ZM152.413 61.6283L152.341 61.3717L158.869 59.4526L158.961 59.7707L152.413 61.6283ZM11.6175 61.4846L5.08009 59.5962L5.17245 59.2781L11.6894 61.2178L11.6175 61.4846ZM152.095 60.5302L152.013 60.2531L158.509 58.2313L158.602 58.5392L152.095 60.5302ZM11.9459 60.3865L5.43929 58.3852L5.54192 58.0671L12.028 60.1196L11.9459 60.3865ZM151.746 59.432L151.654 59.1549L158.119 57.0408L158.212 57.3384L151.746 59.432ZM12.2949 59.2781L5.82927 57.1742L5.9319 56.8663L12.3872 59.001L12.2949 59.2781ZM151.387 58.3339L151.295 58.0466L157.729 55.8298L157.832 56.1171L151.387 58.3339ZM12.6643 58.1697L6.22953 55.9632L6.34242 55.6451L12.7567 57.9029L12.6643 58.1697ZM150.997 57.2461L150.894 56.969L157.288 54.6496L157.391 54.9369L150.997 57.2461ZM13.0543 57.0818L6.6503 54.7727L6.76319 54.4751L13.1569 56.815L13.0543 57.0818ZM150.597 56.1582L150.494 55.8811L156.857 53.4591L156.97 53.7464L150.597 56.1582ZM13.4546 55.9837L7.0916 53.5822L7.20449 53.2846L13.5572 55.7169L13.4546 55.9837ZM150.186 55.0806L150.073 54.8035L156.395 52.2891L156.508 52.5662L150.186 55.0806ZM13.8753 54.9061L7.55343 52.402L7.67658 52.1044L13.9882 54.6393L13.8753 54.9061ZM149.755 54.0133L149.642 53.7362L155.923 51.1089L156.036 51.3962L149.755 54.0133ZM14.3166 53.8285L8.03578 51.2218L8.15894 50.9344L14.4295 53.5617L14.3166 53.8285ZM149.304 52.9562L149.18 52.6894L155.41 49.9594L155.533 50.2365L149.304 52.9562ZM14.7682 52.7612L8.5284 50.0518L8.65155 49.7644L14.8811 52.4944L14.7682 52.7612ZM148.842 51.8991L148.719 51.622L154.907 48.7997L155.03 49.0768L148.842 51.8991ZM15.2403 51.7041L9.04154 48.9024L9.17496 48.615L15.3634 51.4475L15.2403 51.7041ZM148.349 50.842L148.226 50.5855L154.373 47.6606L154.507 47.9479L148.349 50.842ZM15.7329 50.647L9.57521 47.7427L9.70862 47.4553L15.8458 50.3905L15.7329 50.647ZM147.857 49.8055L147.733 49.5489L153.83 46.5317L153.973 46.819L147.857 49.8055ZM16.2358 49.6105L10.1294 46.6035L10.2731 46.3161L16.3589 49.3539L16.2358 49.6105ZM147.343 48.769L147.21 48.5124L153.255 45.3925L153.398 45.6798L147.343 48.769ZM16.7592 48.574L10.7041 45.4746L10.8478 45.1975L16.8926 48.3174L16.7592 48.574ZM146.81 47.7427L146.676 47.4861L152.68 44.2841L152.824 44.5612L146.81 47.7427ZM17.2929 47.5477L11.2891 44.3457L11.443 44.0686L17.4263 47.3014L17.2929 47.5477ZM146.256 46.7369L146.112 46.4803L152.064 43.1757L152.218 43.4528L146.256 46.7369ZM17.847 46.5317L11.8946 43.2373L12.0485 42.9705L17.9907 46.2751L17.847 46.5317ZM145.691 45.7209L145.547 45.4746L151.438 42.0776L151.592 42.3547L145.691 45.7209ZM18.4115 45.5259L12.5206 42.1289L12.6746 41.8621L18.5654 45.2693L18.4115 45.5259ZM145.116 44.7254L144.973 44.4791L150.812 40.9897L150.976 41.2668L145.116 44.7254ZM19.0067 44.5201L13.1569 41.041L13.3211 40.7742L19.1504 44.2738L19.0067 44.5201ZM144.521 43.7504L144.367 43.4939L150.155 39.9224L150.309 40.179L144.521 43.7504ZM19.602 43.5349L13.8138 39.9532L13.978 39.6761L19.7457 43.2783L19.602 43.5349ZM143.905 42.7652L143.751 42.5189L149.488 38.8551L149.653 39.1219L143.905 42.7652ZM20.2178 42.5497L14.4911 38.8756L14.6553 38.619L20.3717 42.3034L20.2178 42.5497ZM143.279 41.7902L143.125 41.5542L148.79 37.7877L148.965 38.0546L143.279 41.7902ZM20.8541 41.5747L15.1787 37.8185L15.3429 37.5619L21.0183 41.3181L20.8541 41.5747ZM142.643 40.8358L142.479 40.5895L148.093 36.7512L148.267 37.0078L142.643 40.8358ZM21.5006 40.6203L15.8868 36.7717L16.0613 36.5151L21.6648 40.374L21.5006 40.6203ZM141.986 39.8813L141.822 39.6453L147.374 35.7146L147.559 35.9712L141.986 39.8813ZM22.1677 39.6658L16.6155 35.7352L16.8002 35.4786L22.3422 39.4298L22.1677 39.6658ZM141.309 38.9474L141.134 38.7114L146.625 34.6884L146.81 34.9347L141.309 38.9474ZM22.8348 38.7319L17.3442 34.7089L17.5289 34.4626L23.0093 38.4959L22.8348 38.7319ZM140.632 38.0135L140.457 37.7775L145.886 33.6723L146.071 33.9186L140.632 38.0135ZM23.5327 37.798L18.1036 33.6929L18.2576 33.4876L23.7071 37.5619L23.5327 37.798ZM139.923 37.1001L139.739 36.8641L145.096 32.6768L145.291 32.9231L139.923 37.1001ZM24.2305 36.8846L18.8836 32.6768L19.0683 32.4408L24.4153 36.6486L24.2305 36.8846ZM139.205 36.1867L139.031 35.9609L144.316 31.6711L144.521 31.9174L139.205 36.1867ZM24.9592 35.9712L19.6636 31.7019L19.8688 31.4556L25.1439 35.7557L24.9592 35.9712ZM138.476 35.2939L138.292 35.0681L143.515 30.7166L143.71 30.9527L138.476 35.2939ZM25.6981 35.0783L20.4743 30.7269L20.6796 30.4806L25.8828 34.8628L25.6981 35.0783ZM137.737 34.4113L137.542 34.1855L142.705 29.7519L142.91 29.988L137.737 34.4113ZM26.4473 34.1957L21.2851 29.7622L21.4904 29.5261L26.632 33.9802L26.4473 34.1957ZM136.978 33.5389L136.783 33.3234L141.873 28.8078L142.079 29.0438L136.978 33.5389ZM27.1965 33.3337L22.1164 28.8078L22.3216 28.582L27.4017 33.1079L27.1965 33.3337ZM136.208 32.6768L136.013 32.4716L141.022 27.8636L141.237 28.0996L136.208 32.6768ZM27.9765 32.4716L22.9682 27.8636L23.1735 27.6378L28.1817 32.2458L27.9765 32.4716ZM135.418 31.825L135.223 31.6198L140.159 26.9399L140.375 27.176L135.418 31.825ZM28.7667 31.6198L23.8303 26.9399L24.0458 26.7141L28.9617 31.4145L28.7667 31.6198ZM134.618 30.9835L134.423 30.7782L139.287 26.0163L139.513 26.242L134.618 30.9835ZM29.5672 30.7885L24.7026 26.0265L24.9181 25.8007L29.7622 30.573L29.5672 30.7885ZM133.807 30.1624L133.602 29.9572L138.384 25.1234L138.61 25.3492L133.807 30.1624ZM30.378 29.9674L25.5955 25.1337L25.8213 24.9181L30.5935 29.7622L30.378 29.9674ZM132.986 29.3517L132.78 29.1567L137.491 24.2511L137.717 24.4768L132.986 29.3517ZM31.2093 29.1567L26.4986 24.2511L26.7244 24.0355L31.4248 28.9514L31.2093 29.1567ZM132.144 28.5512L131.939 28.3562L136.567 23.3787L136.803 23.5942L132.144 28.5512ZM32.0508 28.3664L27.4223 23.389L27.648 23.1735L32.2663 28.1715L32.0508 28.3664ZM131.303 27.7712L131.087 27.5762L135.644 22.5269L135.859 22.7219L131.303 27.7712ZM32.9026 27.5865L28.3459 22.5372L28.582 22.3319L33.1284 27.4017L32.9026 27.5865ZM130.43 26.9912L130.215 26.8065L134.689 21.6853L134.925 21.9009L130.43 26.9912ZM33.7647 26.8168L29.2901 21.6956L29.5261 21.4904L33.9905 26.6218L33.7647 26.8168ZM129.568 26.242L129.342 26.047L133.735 20.8541L133.971 21.0593L129.568 26.242ZM34.6473 26.0573L30.2343 20.8746L30.4806 20.6693L34.8628 25.8726L34.6473 26.0573ZM128.675 25.4929L128.45 25.3081L132.76 20.0433L132.996 20.2383L128.675 25.4929ZM35.5299 25.3184L31.2195 20.0536L31.4556 19.8586L35.7557 25.1337L35.5299 25.3184ZM127.782 24.7642L127.557 24.5795L131.785 19.2531L131.99 19.4173L127.782 24.7642ZM36.433 24.5897L32.2047 19.2633L32.4511 19.0683L36.6691 24.405L36.433 24.5897ZM126.869 24.0458L126.633 23.8611L130.779 18.4731L131.026 18.6578L126.869 24.0458ZM37.3464 23.8816L33.2002 18.4833L33.4465 18.2986L37.5825 23.7071L37.3464 23.8816ZM125.945 23.3479L125.709 23.1735L129.773 17.7136L130.02 17.8984L125.945 23.3479ZM38.2598 23.1837L34.1957 17.7239L34.442 17.5392L38.4856 23.0093L38.2598 23.1837ZM125.012 22.6501L124.775 22.4858L128.757 16.9644L129.014 17.1492L125.012 22.6501ZM39.204 22.4961L35.2118 16.985L35.4683 16.8002L39.4298 22.3319L39.204 22.4961ZM124.078 21.983L123.842 21.8188L127.721 16.2255L127.988 16.4103L124.078 21.983ZM40.1379 21.829L36.2483 16.246L36.5049 16.0716L40.374 21.6648L40.1379 21.829ZM123.113 21.3261L122.877 21.1619L126.684 15.5174L126.951 15.6919L123.113 21.3261ZM41.0924 21.1825L37.2951 15.5379L37.5517 15.3634L41.3387 21.0183L41.0924 21.1825ZM122.158 20.6796L121.912 20.5154L125.627 14.8093L125.894 14.9837L122.158 20.6796ZM42.0571 20.5359L38.3317 14.84L38.5985 14.6656L42.2931 20.382L42.0571 20.5359ZM121.183 20.0536L120.937 19.8996L124.56 14.1422L124.827 14.3064L121.183 20.0536ZM43.0218 19.9201L39.4093 14.1627L39.6658 13.9985L43.2783 19.7559L43.0218 19.9201ZM120.198 19.4378L119.952 19.2941L123.482 13.4751L123.759 13.6393L120.198 19.4378ZM44.007 19.3146L40.4868 13.4956L40.7537 13.3314L44.2636 19.1607L44.007 19.3146ZM119.203 18.8425L118.946 18.6989L122.384 12.8285L122.651 12.9825L119.203 18.8425ZM45.0025 18.7194L41.5542 12.8491L41.8313 12.6848L45.2488 18.5654L45.0025 18.7194ZM118.207 18.2678L117.951 18.1241L121.296 12.2025L121.563 12.3564L118.207 18.2678ZM45.998 18.1447L42.6523 12.223L42.9397 12.0588L46.2443 18.001L45.998 18.1447ZM117.191 17.7034L116.935 17.5597L120.188 11.5867L120.455 11.7304L117.191 17.7034ZM47.0037 17.5905L43.7504 11.6175L44.0173 11.4738L47.2603 17.4571L47.0037 17.5905ZM116.165 17.1389L115.919 17.0055L119.069 10.971L119.357 11.1249L116.165 17.1389ZM48.0198 17.0465L44.8691 11.0223L45.1462 10.8786L48.2763 16.9234L48.0198 17.0465ZM115.149 16.6155L114.882 16.4821L117.93 10.4065L118.207 10.5502L115.149 16.6155ZM49.0563 16.5129L45.9775 10.4475L46.2648 10.3039L49.3026 16.3897L49.0563 16.5129ZM114.092 16.0921L113.835 15.969L116.791 9.84204L117.089 9.98572L114.092 16.0921ZM50.0826 15.9997L47.1064 9.88309L47.3937 9.74968L50.3392 15.8868L50.0826 15.9997ZM113.055 15.5995L112.799 15.4763L115.652 9.29811L115.939 9.43153L113.055 15.5995ZM51.1294 15.5071L48.2558 9.33916L48.5432 9.20575L51.3962 15.384L51.1294 15.5071ZM112.009 15.1171L111.742 15.0042L114.492 8.78497L114.779 8.91839L112.009 15.1171ZM52.1762 15.035L49.395 8.82602L49.6721 8.70287L52.443 14.9119L52.1762 15.035ZM110.941 14.645L110.674 14.5322L113.332 8.27183L113.62 8.39498L110.941 14.645ZM53.2333 14.5732L50.5547 8.31288L50.8318 8.18973L53.5001 14.4501L53.2333 14.5732ZM109.874 14.1935L109.607 14.0806L112.162 7.77921L112.46 7.90237L109.874 14.1935ZM54.2904 14.1319L51.7246 7.83053L52.012 7.71764L54.5675 14.019L54.2904 14.1319ZM108.786 13.7624L108.519 13.6598L110.972 7.31739L111.27 7.44054L108.786 13.7624ZM55.3577 13.7009L52.8946 7.35844L53.182 7.24555L55.6451 13.588L55.3577 13.7009ZM107.708 13.3519L107.431 13.2493L109.792 6.86582L110.089 6.97871L107.708 13.3519ZM56.4455 13.2904L54.0748 6.91714L54.3622 6.81451L56.7226 13.198L56.4455 13.2904ZM106.621 12.9517L106.354 12.8593L108.612 6.44504L108.909 6.54767L106.621 12.9517ZM57.5334 12.8901L55.2756 6.47583L55.563 6.37321L57.8208 12.7875L57.5334 12.8901ZM105.522 12.5617L105.245 12.4693L107.4 6.01401L107.698 6.11663L105.522 12.5617ZM58.6213 12.5104L56.4558 6.06532L56.7534 5.96269L58.8881 12.418L58.6213 12.5104ZM104.404 12.2025L104.137 12.1204L106.189 5.63428L106.508 5.73691L104.404 12.2025ZM59.7297 12.1512L57.6566 5.66507L57.9439 5.5727L60.0068 12.0588L59.7297 12.1512ZM103.306 11.8536L103.039 11.7715L104.978 5.25456L105.297 5.34692L103.306 11.8536ZM60.8278 11.8125L58.8676 5.29561L59.1857 5.20324L61.1049 11.7304L60.8278 11.8125ZM102.197 11.5251L101.93 11.4533L103.778 4.90562L104.096 4.99799L102.197 11.5251ZM61.9464 11.4841L60.0786 4.93641L60.3967 4.84404L62.2133 11.402L61.9464 11.4841ZM101.079 11.2173L100.812 11.1454L102.556 4.56695L102.875 4.64905L101.079 11.2173ZM63.0445 11.1865L61.2999 4.608L61.6078 4.5259L63.3216 11.1146L63.0445 11.1865ZM99.9599 10.9299L99.6828 10.8581L101.325 4.25906L101.633 4.3309L99.9599 10.9299ZM64.1735 10.8889L62.5314 4.28985L62.8393 4.21801L64.4506 10.8273L64.1735 10.8889ZM98.8413 10.6528L98.5539 10.5912L100.093 3.96144L100.401 4.03328L98.8413 10.6528ZM65.3024 10.622L63.7629 3.99223L64.0708 3.92039L65.5897 10.5502L65.3024 10.622ZM97.7124 10.3962L97.4455 10.3347L98.8618 3.68434L99.18 3.75618L97.7124 10.3962ZM66.4313 10.3654L64.9842 3.71513L65.3024 3.64329L66.6981 10.3039L66.4313 10.3654ZM96.5835 10.1602L96.2961 10.0986L97.62 3.42777L97.9279 3.48935L96.5835 10.1602ZM67.5602 10.1294L66.2158 3.45856L66.5442 3.39698L67.8373 10.0781L67.5602 10.1294ZM95.4443 9.94467L95.1569 9.89336L96.3782 3.20199L96.6861 3.26357L95.4443 9.94467ZM68.6891 9.91388L67.4678 3.22252L67.7757 3.1712L68.9662 9.87283L68.6891 9.91388ZM94.3051 9.73941L94.028 9.6881L95.1364 2.97621L95.4546 3.02752L94.3051 9.73941ZM69.8283 9.71889L68.7096 3.007L69.0175 2.95568L70.1156 9.66757L69.8283 9.71889ZM93.1557 9.55468L92.8786 9.51363L93.8741 2.78121L94.2025 2.83253L93.1557 9.55468ZM70.9777 9.53416L69.9514 2.812L70.2798 2.76069L71.2446 9.49311L70.9777 9.53416ZM92.0063 9.39048L91.7292 9.34943L92.622 2.60675L92.9504 2.6478L92.0063 9.39048ZM72.1169 9.36995L71.224 2.62727L71.5319 2.58622L72.4043 9.3289L72.1169 9.36995ZM90.8773 9.2468L90.59 9.21601L91.3802 2.46307L91.6984 2.50412L90.8773 9.2468ZM73.2663 9.22627L72.4658 2.46307L72.784 2.42202L73.5537 9.18522L73.2663 9.22627ZM89.7176 9.11338L89.4405 9.08259L90.1076 2.30912L90.436 2.33991L89.7176 9.11338ZM74.4158 9.09285L73.7179 2.32965L74.0052 2.29886L74.7031 9.06207L74.4158 9.09285ZM88.5785 9.00049L88.2911 8.97996L88.8658 2.19623L89.1532 2.21676L88.5785 9.00049ZM75.5755 8.99023L74.9802 2.21676L75.3086 2.18597L75.8526 8.9697L75.5755 8.99023ZM87.4085 8.90812L87.1314 8.8876L87.6035 2.10387L87.9319 2.12439L87.4085 8.90812ZM76.7249 8.89786L76.2528 2.11413L76.571 2.09361L77.0225 8.87734L76.7249 8.89786ZM86.2591 8.83628L85.9717 8.81576L86.3412 2.02177L86.6593 2.04229L86.2591 8.83628ZM77.8743 8.82602L77.5049 2.03203L77.8333 2.0115L78.1617 8.8055L77.8743 8.82602ZM85.0994 8.77471L84.8223 8.76444L85.0686 1.97045L85.397 1.98071L85.0994 8.77471ZM79.034 8.76444L78.7569 1.97045L79.0854 1.96019L79.3111 8.76444H79.034ZM83.9499 8.73366L83.6626 8.72339L83.8165 1.91914L84.1244 1.9294L83.9499 8.73366ZM80.1937 8.73366L80.0193 1.9294L80.3477 1.91914L80.4708 8.72339L80.1937 8.73366ZM82.78 8.71313H82.5029L82.5542 1.90887H82.8826L82.78 8.71313ZM81.3432 8.71313L81.2919 1.90887H81.61L81.6305 8.71313H81.3432Z" fill="#FFDF00"/>
<path d="M154.5 82C154.5 122.041 122.041 154.5 82 154.5C41.9594 154.5 9.5 122.041 9.5 82C9.5 41.9594 41.9594 9.5 82 9.5C122.041 9.5 154.5 41.9594 154.5 82Z" fill="url(#paint2_linear_120_836)" stroke="#FFBF51"/>
<path d="M153 82C153 121.209 121.209 153 82 153C42.7912 153 11 121.209 11 82C11 42.7912 42.7912 11 82 11C121.209 11 153 42.781 153 82Z" fill="url(#paint3_radial_120_836)"/>
<defs>
<linearGradient id="paint0_linear_120_836" x1="164" y1="82" x2="0" y2="82" gradientUnits="userSpaceOnUse">
<stop stop-color="#632400"/>
<stop offset="0.27" stop-color="#632400" stop-opacity="0.457516"/>
<stop offset="0.695" stop-color="#632400" stop-opacity="0"/>
<stop offset="1" stop-color="#632400"/>
</linearGradient>
<linearGradient id="paint1_linear_120_836" x1="162" y1="82" x2="2" y2="82" gradientUnits="userSpaceOnUse">
<stop stop-color="#FF6422"/>
<stop offset="0.355882" stop-color="#FFE97A"/>
<stop offset="0.717647" stop-color="#FFE97A"/>
<stop offset="1" stop-color="#FF6422"/>
</linearGradient>
<linearGradient id="paint2_linear_120_836" x1="82" y1="9" x2="82" y2="155" gradientUnits="userSpaceOnUse">
<stop stop-color="#FFE97A"/>
<stop offset="1" stop-color="#FF6422"/>
</linearGradient>
<radialGradient id="paint3_radial_120_836" cx="0" cy="0" r="1" gradientUnits="userSpaceOnUse" gradientTransform="translate(81.9975 81.9974) scale(71.0007)">
<stop offset="0.5223" stop-color="#FFFCF5"/>
<stop offset="0.6644" stop-color="#FFFAF3"/>
<stop offset="0.7474" stop-color="#FDF5EA"/>
<stop offset="0.8153" stop-color="#FAECDC"/>
<stop offset="0.875" stop-color="#F7DFC8"/>
<stop offset="0.9292" stop-color="#F2CEAE"/>
<stop offset="0.9789" stop-color="#ECB98F"/>
<stop offset="1" stop-color="#E9AF7F"/>
</radialGradient>
</defs>
</svg>
