<svg width="14" height="18" viewBox="0 0 14 18" fill="none" xmlns="http://www.w3.org/2000/svg">
<path d="M12.2648 6.99023C12.2648 9.90487 6.98973 16.042 6.98973 16.042C6.98973 16.042 1.71463 9.90487 1.71463 6.99023C1.71463 4.07558 4.07508 1.71513 6.98973 1.71513C9.90437 1.71513 12.2648 4.07558 12.2648 6.99023Z" fill="url(#paint0_radial_135_912)"/>
<path d="M6.99999 1.71514C9.91463 1.71514 12.2751 4.07559 12.2751 6.99023C12.2751 9.90487 6.99999 16.042 6.99999 16.042C6.99999 16.042 1.72489 9.90487 1.72489 6.99023C1.72489 4.07559 4.08535 1.71514 6.99999 1.71514ZM6.99999 0.955688C3.67483 0.955688 0.975708 3.65481 0.975708 6.97997C0.975708 10.0793 5.87108 15.8778 6.42527 16.5244L6.99999 17.1915L7.57471 16.5244C8.1289 15.8778 13.0243 10.0793 13.0243 6.97997C13.0243 3.66508 10.3251 0.955688 6.99999 0.955688Z" fill="#C74800"/>
<defs>
<radialGradient id="paint0_radial_135_912" cx="0" cy="0" r="1" gradientUnits="userSpaceOnUse" gradientTransform="translate(10.1414 -7.09408) rotate(99.7247) scale(35.7021 10.3627)">
<stop stop-color="#FFE97A"/>
<stop offset="1" stop-color="#FF6422"/>
</radialGradient>
</defs>
</svg>
