<svg width="1em" height="1em" viewBox="0 0 60 60" fill="none" xmlns="http://www.w3.org/2000/svg">
<path opacity="0.4" d="M60 30C60 46.5672 46.5672 60 30 60C13.4328 60 0 46.5672 0 30C0 13.4328 13.4328 0 30 0C46.5672 0 60 13.4328 60 30Z" fill="url(#paint0_radial_120_903)"/>
<path d="M52 30C52 42.1513 42.1513 52 30 52C17.8487 52 8 42.1513 8 30C8 17.8487 17.8487 8 30 8C42.1408 8 52 17.8487 52 30Z" fill="#FFBE51"/>
<path d="M51 30C51 41.599 41.599 51 30 51C18.401 51 9 41.599 9 30C9 18.401 18.401 9 30 9C41.5888 9 51 18.4013 51 30Z" stroke="#FF7A01" stroke-opacity="0.8" stroke-width="2"/>
<path opacity="0.8" d="M50 30C50 41.0492 41.0393 50 30 50C18.9508 50 10 41.0393 10 30C10 18.9508 18.9607 10 30 10C41.0492 9.99006 50 18.9508 50 30Z" fill="#C74800"/>
<path d="M49 30C49 40.4901 40.4901 49 30 49C19.5099 49 11 40.4901 11 30C11 19.5099 19.5099 11 30 11C40.4901 11 49 19.5099 49 30Z" fill="url(#paint1_radial_120_903)"/>
<path d="M14.9417 31.3758C15.1024 31.5366 15.4239 31.7509 15.9061 32.0724C16.3884 32.3938 16.817 32.5546 17.2456 32.6082C17.6743 32.6617 17.8886 32.501 17.8886 32.1259C17.8886 31.9652 17.835 31.8045 17.7279 31.6437C17.6207 31.483 17.4064 31.3222 17.0849 31.1615C16.7634 31.0008 16.5491 30.84 16.3884 30.7329C16.2276 30.6257 16.0133 30.465 15.7454 30.2506C15.4775 30.0363 15.2632 29.822 15.156 29.6077C14.781 29.0183 14.5667 28.3218 14.5667 27.4109C14.5667 26.5 14.8881 25.7499 15.5311 24.9998C15.8526 24.6247 16.2276 24.3033 16.6563 24.089C17.0849 23.8211 17.5671 23.6603 18.1029 23.5532C18.7995 23.446 19.496 23.3924 20.0854 23.4996C20.6748 23.6067 20.9962 23.8211 21.0498 24.1425C21.0498 24.1961 21.0498 24.1961 21.0498 24.2497C21.0498 24.6783 20.9427 25.2141 20.7283 25.9107C20.514 26.5536 20.3533 26.9287 20.2461 27.0358C19.6032 26.6608 19.0674 26.5536 18.5316 26.5536C18.0493 26.6072 17.7814 26.8215 17.7814 27.2502C17.7814 27.5181 17.9422 27.6788 18.3172 27.8931C18.3708 27.9467 18.5316 28.0003 18.6387 28.0539C18.7995 28.1074 18.9602 28.2146 19.1745 28.3218C19.3888 28.4289 19.6032 28.5361 19.8175 28.7504C20.0318 28.9111 20.2997 29.1255 20.514 29.4469C21.0498 30.0363 21.3177 30.8936 21.3177 31.858C21.3177 32.501 21.2641 33.0904 21.1034 33.6262C20.9427 34.162 20.7283 34.5906 20.4604 34.9657C20.1925 35.3407 19.8175 35.6086 19.3353 35.7158C18.9066 35.8765 18.3708 35.8765 17.7279 35.7694C17.1385 35.6622 16.6027 35.5015 16.1205 35.2872C15.6382 35.0728 15.2096 34.8049 14.8881 34.4299C14.5131 34.0548 14.3523 33.6798 14.3523 33.2511C14.3523 32.8225 14.4059 32.4474 14.5667 32.0724C14.6202 31.7509 14.781 31.483 14.9417 31.3758ZM31.3372 33.2511C31.3372 32.2867 31.3372 31.5366 31.3372 30.7864C31.3372 30.0363 31.3372 29.3934 31.3372 28.6432C31.3372 27.8931 31.3372 27.143 31.3372 26.1786C30.9085 26.1786 30.6942 26.1786 30.2656 26.1786C30.1048 26.1786 29.9441 25.9107 29.8905 25.3213C29.8369 25.0534 29.8369 24.7319 29.8369 24.464C29.8369 24.1961 29.8369 23.8746 29.8905 23.6067C29.9441 23.0174 30.1048 22.7495 30.2656 22.7495C31.2836 22.7495 32.0337 22.803 32.7838 22.803C33.534 22.8566 34.2841 22.9102 35.3021 22.9638C35.4628 22.9638 35.57 23.2853 35.6236 23.8211C35.6772 24.089 35.6772 24.3569 35.6772 24.6248C35.6772 24.8927 35.6772 25.1606 35.6236 25.4285C35.57 25.9642 35.4628 26.2321 35.3021 26.2321C34.927 26.2321 34.7127 26.2321 34.2841 26.1786C34.2841 27.0894 34.2841 27.8931 34.2841 28.5897C34.2841 29.2862 34.2841 29.9828 34.2841 30.6793C34.2841 31.3758 34.2841 32.1795 34.2841 33.0904C34.7127 33.0904 34.927 33.0904 35.3557 33.0368C35.5164 33.0368 35.6236 33.3047 35.7307 33.8405C35.7843 34.1084 35.7843 34.3763 35.7843 34.6442C35.7843 34.9121 35.7843 35.18 35.7307 35.4479C35.6772 35.9837 35.5164 36.3052 35.3557 36.3052C34.3377 36.4123 33.5875 36.4659 32.8374 36.4659C32.0873 36.5195 31.3372 36.5195 30.3192 36.5195C30.1584 36.5195 30.0513 36.198 29.9977 35.6622C29.9441 35.3943 29.9441 35.0728 29.9441 34.8049C29.9441 34.537 29.9441 34.2156 29.9977 33.9477C30.0513 33.4119 30.1584 33.0904 30.3192 33.0904C30.6942 33.2511 30.9085 33.2511 31.3372 33.2511ZM44.6786 34.6442C44.6786 34.8585 44.1964 35.0728 43.2855 35.2872C42.3747 35.5015 41.8389 35.5015 41.7853 35.3407C41.4638 34.6978 41.1959 34.162 40.928 33.6262C40.6601 33.0904 40.4458 32.6082 40.1779 32.0724C39.91 31.5366 39.6421 30.9472 39.3206 30.1971C39.3206 31.3222 39.3206 32.126 39.3206 32.9832C39.3206 33.8405 39.3206 34.6442 39.3206 35.7694C39.3206 35.9837 38.8384 36.1444 37.9275 36.3052C37.0167 36.4123 36.5344 36.3588 36.5344 36.1444C36.5344 35.1264 36.5344 34.2156 36.5344 33.3583C36.5344 32.501 36.5344 31.6973 36.5344 30.9472C36.5344 30.1971 36.5344 29.4469 36.5344 28.6432C36.5344 27.8931 36.5344 27.0894 36.5344 26.2321C36.5344 25.3749 36.5344 24.464 36.5344 23.446C36.5344 23.2853 36.9095 23.1781 37.7132 23.2853C38.0347 23.3388 38.3562 23.3924 38.7848 23.5532C39.2134 23.6603 39.4278 23.821 39.5349 24.0354C39.8564 24.7855 40.1243 25.4285 40.3386 26.0178C40.6065 26.6072 40.8208 27.143 41.0352 27.6788C41.3031 28.2146 41.571 28.804 41.8389 29.5005C41.8389 28.4825 41.8389 27.6788 41.8389 26.8751C41.8389 26.0714 41.8389 25.3213 41.8389 24.2497C41.8389 24.0354 42.3211 24.0354 43.2319 24.1961C44.1428 24.4104 44.625 24.5712 44.625 24.7855C44.625 25.7499 44.625 26.6072 44.625 27.4109C44.625 28.2146 44.625 28.9647 44.625 29.6613C44.625 30.4114 44.625 31.1615 44.625 31.9116C44.6786 32.7689 44.6786 33.6262 44.6786 34.6442ZM23.5145 36.4659C22.6036 36.3588 22.175 36.198 22.175 35.9301C22.175 34.9657 22.175 34.0548 22.175 33.2511C22.175 32.4474 22.175 31.6973 22.175 30.9472C22.175 30.1971 22.175 29.5005 22.175 28.7504C22.175 28.0003 22.175 27.2502 22.175 26.4465C22.175 25.6428 22.175 24.7319 22.175 23.7675C22.175 23.3388 22.3357 23.1245 22.6572 23.0709C23.7288 22.9638 24.2646 22.9102 25.2826 22.8566C26.0328 22.803 26.6757 22.8566 27.2115 23.0709C27.7473 23.2317 28.176 23.5531 28.4974 23.9282C28.8189 24.3033 29.0868 24.8391 29.2476 25.4285C29.4083 26.0178 29.5155 26.7144 29.5155 27.4645C29.5155 28.1075 29.4619 28.6968 29.3011 29.2862C29.1404 29.8756 28.9261 30.4114 28.6046 30.9472C28.2831 31.483 27.8545 31.9116 27.2115 32.2331C26.6221 32.5546 25.9256 32.6617 25.1219 32.6617C25.1219 33.3583 25.1219 33.8941 25.1219 34.4299C25.1219 34.9657 25.1219 35.5015 25.1219 36.198C25.1219 36.3588 24.9076 36.4659 24.5325 36.4659C24.1039 36.5195 23.7824 36.5195 23.5145 36.4659ZM25.0683 26.2857C25.0683 26.9287 25.0683 27.3573 25.0683 27.8395C25.0683 28.3218 25.0683 28.7504 25.0683 29.3934C25.1219 29.3934 25.1755 29.3934 25.2826 29.3934C25.6577 29.3934 25.9256 29.2326 26.1935 28.9647C26.4078 28.6968 26.5686 28.2682 26.5686 27.7324C26.5686 27.1966 26.4614 26.8215 26.3007 26.6072C26.1399 26.3929 25.8184 26.2857 25.4434 26.2857C25.2291 26.2857 25.1755 26.2857 25.0683 26.2857Z" fill="url(#paint2_radial_120_903)"/>
<path d="M30.2655 36.9481C29.7833 36.9481 29.7297 36.2516 29.6761 35.8765C29.6225 35.555 29.6225 35.2335 29.6225 34.9656C29.6225 34.6977 29.6225 34.4298 29.6761 34.0548C29.7297 33.6797 29.8369 32.9832 30.2655 32.9832C30.587 32.9832 30.8013 32.9832 31.0156 32.9832V26.4464C30.7477 26.4464 30.5334 26.4464 30.2119 26.4464C29.7297 26.4464 29.6225 25.6427 29.569 25.3748C29.5154 25.1069 29.5154 24.7854 29.5154 24.464C29.5154 24.1425 29.5154 23.821 29.569 23.5531C29.6225 23.2316 29.6761 22.4815 30.2119 22.4815C31.3371 22.4815 32.1408 22.5351 32.7302 22.5351C33.641 22.5887 34.3912 22.6422 35.2484 22.6958C35.6235 22.7494 35.7842 23.2316 35.8378 23.7674C35.8914 24.0889 35.8914 24.3568 35.8914 24.6247C35.8914 24.8926 35.8914 25.1605 35.8378 25.482C35.7842 25.8035 35.6771 26.5536 35.1949 26.5C34.8734 26.5 34.7126 26.5 34.4447 26.4464V31.7508V32.8224C34.7126 32.8224 34.8734 32.8224 35.1949 32.7689C35.6771 32.7689 35.7842 33.4654 35.8378 33.7869C35.8914 34.1084 35.8914 34.3763 35.8914 34.6442C35.8914 34.9121 35.8914 35.18 35.8378 35.5014C35.7842 36.0372 35.6235 36.573 35.2484 36.573C34.1233 36.6802 33.3196 36.7338 32.7302 36.7338C32.1944 36.8945 31.3907 36.9481 30.2655 36.9481ZM30.3191 33.519C30.2655 33.5726 30.2119 33.7333 30.1583 34.1619C30.1048 34.4834 30.1048 34.7513 30.1048 34.9656C30.1048 35.2335 30.1048 35.5014 30.1583 35.7693C30.2119 36.198 30.2655 36.3051 30.3191 36.4123C31.3907 36.4123 32.1408 36.3587 32.7838 36.3587C33.4267 36.3051 34.1768 36.3051 35.2484 36.198C35.302 36.1444 35.3556 35.9837 35.4092 35.555C35.4628 35.2871 35.4628 35.0192 35.4628 34.7513C35.4628 34.4834 35.4628 34.2691 35.4092 33.9476C35.3556 33.5726 35.302 33.4118 35.2484 33.3582C34.8734 33.3582 34.6591 33.3582 34.2304 33.4118C34.1768 33.4118 34.0697 33.4118 34.0161 33.3582C33.9625 33.3047 33.9089 33.2511 33.9089 33.1439V27.5716V26.2321C33.9089 26.1785 33.9625 26.0714 34.0161 26.0178C34.0697 25.9642 34.1233 25.9642 34.2304 25.9642C34.6055 25.9642 34.8198 25.9642 35.1949 26.0178C35.2484 25.9642 35.302 25.8035 35.302 25.4284C35.3556 25.1069 35.3556 24.8926 35.3556 24.6247C35.3556 24.4104 35.3556 24.1425 35.302 23.821C35.2484 23.3924 35.1949 23.2316 35.1413 23.178C34.0697 23.0709 33.266 23.0173 32.6766 23.0173C32.0872 22.9637 31.2835 22.9637 30.2119 22.9637C30.1583 23.0173 30.1048 23.178 30.0512 23.6067C29.9976 23.8746 29.9976 24.1425 29.9976 24.4104C29.9976 24.7319 29.9976 24.9998 30.0512 25.2141C30.1048 25.6427 30.1583 25.8035 30.2119 25.857C30.587 25.857 30.8013 25.857 31.2299 25.857C31.3907 25.857 31.4978 25.9642 31.4978 26.1249V33.1975C31.4978 33.3582 31.3907 33.4654 31.2299 33.4654C30.9085 33.519 30.6941 33.519 30.3191 33.519ZM23.8895 36.7874C23.7287 36.7874 23.6216 36.7874 23.4608 36.7874C22.7107 36.7338 21.8534 36.573 21.8534 35.9837V23.821C21.8534 23.0173 22.3357 22.9101 22.55 22.8566C23.6216 22.7494 24.1574 22.6958 25.1754 22.6422C25.9255 22.5887 26.6221 22.6422 27.2114 22.8566C27.8008 23.0709 28.283 23.3924 28.6045 23.821C28.9796 24.2496 29.1939 24.7854 29.4082 25.4284C29.569 26.0178 29.6761 26.7679 29.6761 27.518C29.6761 28.161 29.569 28.8039 29.4082 29.3933C29.2475 29.9827 28.9796 30.5721 28.6581 31.1079C28.3366 31.6973 27.8008 32.1259 27.1579 32.4474C26.5685 32.7153 25.9255 32.876 25.1754 32.9296V36.1444C25.1754 36.3587 25.0147 36.6266 24.3717 36.6802C24.3181 36.7338 24.1038 36.7874 23.8895 36.7874ZM23.5144 36.198C23.7823 36.198 24.1038 36.198 24.4253 36.198C24.6396 36.198 24.6932 36.1444 24.7468 36.1444V32.7153C24.7468 32.6617 24.8003 32.5545 24.8539 32.501C24.9075 32.4474 24.9611 32.4474 25.0682 32.4474C25.8184 32.4474 26.4613 32.3402 27.0507 32.0723C27.5865 31.8044 28.0151 31.3758 28.283 30.8936C28.6045 30.4113 28.8188 29.822 28.9796 29.2862C29.1403 28.7504 29.1939 28.1074 29.1939 27.518C29.1939 26.7679 29.1403 26.1249 28.9796 25.5356C28.8188 24.9998 28.6045 24.5175 28.283 24.1425C27.9616 23.7674 27.5865 23.4995 27.1043 23.3388C26.6221 23.178 25.9791 23.1245 25.2826 23.1245C24.211 23.178 23.7287 23.2316 22.6571 23.3388C22.6036 23.3388 22.4428 23.3388 22.4428 23.7674V35.9301C22.4428 35.9301 22.6036 36.1444 23.5144 36.198ZM37.1773 36.5195C36.6951 36.5195 36.5344 36.4123 36.4272 36.3587C36.32 36.2516 36.2665 36.1444 36.2665 36.0372V23.4459C36.2665 23.3388 36.32 23.2316 36.4272 23.1245C36.5879 23.0173 36.8558 22.9101 37.7667 23.0173C38.0882 23.0709 38.4632 23.1245 38.8919 23.2852C39.3741 23.4459 39.6956 23.6603 39.8027 23.8746C40.1242 24.6783 40.3921 25.2677 40.66 25.857C40.9279 26.4464 41.1422 26.9822 41.3566 27.518C41.4637 27.7323 41.5709 28.0002 41.678 28.2146V24.2496C41.678 24.1425 41.7316 24.0353 41.8388 23.9282C41.9995 23.821 42.321 23.7138 43.3926 23.9282C44.5178 24.1425 45 24.4104 45 24.7854V34.6442C45 35.0192 44.5178 35.2871 43.3926 35.5014C42.0531 35.7693 41.7316 35.6622 41.5709 35.3943C41.2494 34.7513 40.9815 34.2155 40.7136 33.6797C40.4457 33.1439 40.2314 32.6617 39.9635 32.1259C39.8563 31.858 39.7492 31.6437 39.5884 31.3758V35.7158C39.5884 36.0908 39.1062 36.3587 37.981 36.5195C37.6595 36.5195 37.3916 36.5195 37.1773 36.5195ZM36.8558 35.9301C36.963 35.9837 37.2309 35.9837 37.9274 35.9301C38.7847 35.8229 38.999 35.6622 39.0526 35.6622V30.1434C39.0526 30.0363 39.1598 29.9291 39.2669 29.8755C39.3741 29.8755 39.5348 29.9291 39.5884 30.0363C39.9099 30.7864 40.1778 31.3758 40.4457 31.9116C40.7136 32.4474 40.9279 32.9832 41.1958 33.4654C41.4637 34.0012 41.7316 34.4834 42.0531 35.1264C42.1603 35.1264 42.4282 35.18 43.2854 34.9656C44.1963 34.8049 44.4106 34.5906 44.4642 34.5906V24.839C44.4106 24.7854 44.1427 24.6247 43.2854 24.464C42.6425 24.3032 42.321 24.3032 42.2138 24.3568V29.4469C42.2138 29.5541 42.1067 29.6612 41.9995 29.7148C41.8924 29.7684 41.7316 29.6612 41.678 29.5541C41.3566 28.8575 41.0886 28.2681 40.8743 27.7323C40.6064 27.1965 40.3921 26.6607 40.1778 26.0714C39.9099 25.482 39.642 24.839 39.3741 24.0889C39.3741 24.0353 39.2669 23.9282 38.7847 23.7674C38.4097 23.6603 38.0346 23.5531 37.7667 23.5531C37.2309 23.4995 36.963 23.4995 36.9094 23.5531V35.9301H36.8558ZM18.3707 36.1444C18.1028 36.1444 17.8885 36.1444 17.6206 36.0908C17.0312 35.9837 16.4954 35.8229 15.9596 35.6086C15.4774 35.3943 14.9952 35.0728 14.6201 34.6977C14.2451 34.2691 14.0308 33.8405 14.0308 33.3582C14.0308 32.9296 14.0843 32.501 14.2451 32.0723C14.4058 31.6437 14.6201 31.3222 14.8345 31.1615C14.9416 31.1079 15.0488 31.1079 15.1559 31.1615C15.3167 31.3222 15.5846 31.5365 16.1204 31.858C16.549 32.1795 16.9241 32.3402 17.2991 32.3402C17.4599 32.3402 17.5135 32.3402 17.567 32.2866C17.6206 32.2331 17.6206 32.1795 17.6206 32.0723C17.6206 31.9652 17.567 31.858 17.5135 31.8044C17.4599 31.7508 17.2991 31.5901 16.9241 31.3758C16.6026 31.215 16.3883 31.0543 16.2275 30.9471C16.0668 30.84 15.8525 30.6792 15.5846 30.4649C15.3167 30.2506 15.1024 29.9827 14.9416 29.7684C14.513 29.1254 14.2987 28.3753 14.2987 27.4644C14.2987 26.5 14.6201 25.6963 15.3167 24.8926C15.6382 24.464 16.0668 24.1425 16.4954 23.8746C16.9777 23.6067 17.4599 23.4459 17.9957 23.3388C18.7458 23.2316 19.4423 23.178 20.0853 23.2852C20.9962 23.4459 21.2105 23.821 21.2641 24.1425V24.2496C21.2641 24.7319 21.1569 25.2677 20.9426 25.9642C20.6211 26.9286 20.5139 27.0894 20.4068 27.1965C20.2996 27.2501 20.1925 27.3037 20.0853 27.2501C19.4959 26.9286 19.0137 26.7679 18.5315 26.8215C18.0493 26.8751 18.0493 27.0894 18.0493 27.2501C18.0493 27.3573 18.1564 27.518 18.4243 27.6252C18.5315 27.6788 18.6386 27.7323 18.7458 27.7859C18.9065 27.8395 19.0673 27.9467 19.2816 28.0538C19.4959 28.161 19.7102 28.3217 19.9246 28.4825C20.1389 28.6432 20.4068 28.9111 20.6747 29.179C21.2641 29.822 21.532 30.7328 21.532 31.8044C21.532 32.501 21.4784 33.0903 21.3176 33.6797C21.1569 34.2155 20.9426 34.7513 20.6211 35.1264C20.2996 35.555 19.871 35.8229 19.3888 35.9837C19.0137 36.0908 18.7458 36.1444 18.3707 36.1444ZM14.9952 31.7508C14.9416 31.858 14.8345 32.0187 14.7273 32.2331C14.5666 32.6081 14.513 32.9832 14.513 33.3582C14.513 33.6797 14.6737 34.0012 14.9416 34.3227C15.2631 34.6442 15.6917 34.9656 16.1204 35.1264C16.6026 35.3407 17.1384 35.5014 17.6742 35.6086C18.21 35.7158 18.7458 35.7158 19.1209 35.555C19.4959 35.4479 19.8174 35.2335 20.0853 34.8585C20.3532 34.537 20.5675 34.1084 20.6747 33.5726C20.8354 33.0903 20.889 32.501 20.889 31.858C20.889 30.8936 20.6211 30.1434 20.1389 29.6076C19.871 29.3397 19.6567 29.1254 19.4423 28.9647C19.228 28.8039 19.0137 28.6968 18.853 28.5896C18.6386 28.4825 18.4779 28.3753 18.3707 28.3217C18.21 28.2681 18.1028 28.161 18.0493 28.161C17.567 27.9467 17.3527 27.6252 17.3527 27.3037C17.3527 26.9822 17.4599 26.4464 18.3707 26.3393C18.853 26.2857 19.4423 26.4464 19.9781 26.7143C20.0317 26.5536 20.1389 26.3393 20.2996 25.857C20.5139 25.2141 20.6211 24.6783 20.6211 24.3032V24.1961C20.6211 24.0353 20.3532 23.9282 19.9246 23.821C19.3352 23.7138 18.7458 23.7674 18.0493 23.8746C17.567 23.9817 17.1384 24.1425 16.7098 24.3568C16.3347 24.5711 15.9596 24.8926 15.6382 25.2141C15.0488 25.9106 14.7273 26.6607 14.7273 27.4644C14.7273 28.2681 14.888 28.9647 15.2631 29.5005C15.3703 29.7148 15.5846 29.8755 15.7989 30.0899C16.0668 30.3042 16.2811 30.4649 16.3883 30.5185C16.549 30.6257 16.7633 30.7328 17.0848 30.9471C17.4063 31.1615 17.6742 31.3222 17.7814 31.4829C17.9421 31.6437 18.0493 31.858 18.0493 32.1259C18.0493 32.3938 17.9957 32.5545 17.8349 32.7153C17.6742 32.876 17.4599 32.9296 17.1384 32.876C16.7098 32.8224 16.174 32.6617 15.6917 32.2866C15.4238 32.0723 15.1559 31.858 14.9952 31.7508ZM25.0682 29.6612C25.0147 29.6612 24.9075 29.6076 24.8539 29.6076C24.8003 29.5541 24.8003 29.5005 24.8003 29.3933V26.2857C24.8003 26.1249 24.9075 26.0178 25.0682 26.0178H25.3897C25.9255 26.0178 26.247 26.1249 26.5149 26.4464C26.7292 26.7143 26.8364 27.143 26.8364 27.7323C26.8364 28.3217 26.6756 28.8039 26.4077 29.1254C26.1398 29.5005 25.7648 29.6612 25.3361 29.6612H25.0682ZM25.3361 26.5536V29.1254C25.5505 29.1254 25.7648 29.0183 25.9255 28.8039C26.1398 28.5896 26.247 28.2146 26.247 27.7323C26.247 27.143 26.1398 26.8751 26.0327 26.7679C25.9255 26.6072 25.7112 26.5536 25.3897 26.5536H25.3361Z" fill="#C74800"/>
<defs>
<radialGradient id="paint0_radial_120_903" cx="0" cy="0" r="1" gradientUnits="userSpaceOnUse" gradientTransform="translate(29.9993 30.0021) scale(30.0025)">
<stop offset="0.3384" stop-color="#400500"/>
<stop offset="0.3682" stop-color="#4F1814"/>
<stop offset="0.4696" stop-color="#7D5451"/>
<stop offset="0.5702" stop-color="#A48886"/>
<stop offset="0.6676" stop-color="#C5B3B2"/>
<stop offset="0.7611" stop-color="#DED4D3"/>
<stop offset="0.8498" stop-color="#F0ECEB"/>
<stop offset="0.9316" stop-color="#FBFAFA"/>
<stop offset="1" stop-color="white"/>
</radialGradient>
<radialGradient id="paint1_radial_120_903" cx="0" cy="0" r="1" gradientUnits="userSpaceOnUse" gradientTransform="translate(41.3517 -12.3651) rotate(103.101) scale(95.828 36.8832)">
<stop stop-color="#FFE97A"/>
<stop offset="1" stop-color="#FF6422"/>
</radialGradient>
<radialGradient id="paint2_radial_120_903" cx="0" cy="0" r="1" gradientUnits="userSpaceOnUse" gradientTransform="translate(24.5369 20.7872) scale(26.4598 26.4598)">
<stop stop-color="#FFFADB"/>
<stop offset="0.1314" stop-color="#FEF7D2"/>
<stop offset="0.3456" stop-color="#FBEFBA"/>
<stop offset="0.6145" stop-color="#F7E192"/>
<stop offset="0.6352" stop-color="#F7E08F"/>
<stop offset="0.6937" stop-color="#F5DA88"/>
<stop offset="0.7796" stop-color="#F1CB74"/>
<stop offset="0.8826" stop-color="#EAB254"/>
<stop offset="0.9979" stop-color="#E09027"/>
<stop offset="1" stop-color="#E08F26"/>
</radialGradient>
</defs>
</svg>
